<?xml version="1.0" encoding="UTF-8"?>
<svg xmlns="http://www.w3.org/2000/svg" xmlns:xlink="http://www.w3.org/1999/xlink" width="100pt" height="100pt" viewBox="0 0 100 100" version="1.1">
<defs>
<linearGradient id="linear0" gradientUnits="userSpaceOnUse" x1="-8.362" y1="44.362" x2="52.007" y2="-16.007" gradientTransform="matrix(1.5625,0,0,1.5625,0,0)">
<stop offset="0" style="stop-color:rgb(0%,24.705882%,54.117647%);stop-opacity:1;"/>
<stop offset="0.518" style="stop-color:rgb(0%,84.313725%,87.45098%);stop-opacity:1;"/>
<stop offset="1" style="stop-color:rgb(0%,42.745098%,94.117647%);stop-opacity:1;"/>
</linearGradient>
<linearGradient id="linear1" gradientUnits="userSpaceOnUse" x1="-1.362" y1="51.362" x2="59.007" y2="-9.007" gradientTransform="matrix(1.5625,0,0,1.5625,0,0)">
<stop offset="0" style="stop-color:rgb(0%,24.705882%,54.117647%);stop-opacity:1;"/>
<stop offset="0.518" style="stop-color:rgb(0%,84.313725%,87.45098%);stop-opacity:1;"/>
<stop offset="1" style="stop-color:rgb(0%,42.745098%,94.117647%);stop-opacity:1;"/>
</linearGradient>
<linearGradient id="linear2" gradientUnits="userSpaceOnUse" x1="6.328" y1="59.052" x2="66.697" y2="-1.317" gradientTransform="matrix(1.5625,0,0,1.5625,0,0)">
<stop offset="0" style="stop-color:rgb(0%,24.705882%,54.117647%);stop-opacity:1;"/>
<stop offset="0.518" style="stop-color:rgb(0%,84.313725%,87.45098%);stop-opacity:1;"/>
<stop offset="1" style="stop-color:rgb(0%,42.745098%,94.117647%);stop-opacity:1;"/>
</linearGradient>
<linearGradient id="linear3" gradientUnits="userSpaceOnUse" x1="0.388" y1="53.112" x2="60.757" y2="-7.257" gradientTransform="matrix(1.5625,0,0,1.5625,0,0)">
<stop offset="0" style="stop-color:rgb(0%,24.705882%,54.117647%);stop-opacity:1;"/>
<stop offset="0.518" style="stop-color:rgb(0%,84.313725%,87.45098%);stop-opacity:1;"/>
<stop offset="1" style="stop-color:rgb(0%,42.745098%,94.117647%);stop-opacity:1;"/>
</linearGradient>
<linearGradient id="linear4" gradientUnits="userSpaceOnUse" x1="4.638" y1="57.362" x2="65.007" y2="-3.007" gradientTransform="matrix(1.5625,0,0,1.5625,0,0)">
<stop offset="0" style="stop-color:rgb(0%,24.705882%,54.117647%);stop-opacity:1;"/>
<stop offset="0.518" style="stop-color:rgb(0%,84.313725%,87.45098%);stop-opacity:1;"/>
<stop offset="1" style="stop-color:rgb(0%,42.745098%,94.117647%);stop-opacity:1;"/>
</linearGradient>
<linearGradient id="linear5" gradientUnits="userSpaceOnUse" x1="12.141" y1="64.866" x2="72.511" y2="4.496" gradientTransform="matrix(1.5625,0,0,1.5625,0,0)">
<stop offset="0" style="stop-color:rgb(0%,24.705882%,54.117647%);stop-opacity:1;"/>
<stop offset="0.518" style="stop-color:rgb(0%,84.313725%,87.45098%);stop-opacity:1;"/>
<stop offset="1" style="stop-color:rgb(0%,42.745098%,94.117647%);stop-opacity:1;"/>
</linearGradient>
<linearGradient id="linear6" gradientUnits="userSpaceOnUse" x1="-4.612" y1="48.112" x2="55.757" y2="-12.257" gradientTransform="matrix(1.5625,0,0,1.5625,0,0)">
<stop offset="0" style="stop-color:rgb(0%,24.705882%,54.117647%);stop-opacity:1;"/>
<stop offset="0.518" style="stop-color:rgb(0%,84.313725%,87.45098%);stop-opacity:1;"/>
<stop offset="1" style="stop-color:rgb(0%,42.745098%,94.117647%);stop-opacity:1;"/>
</linearGradient>
<linearGradient id="linear7" gradientUnits="userSpaceOnUse" x1="-3.112" y1="49.612" x2="57.257" y2="-10.757" gradientTransform="matrix(1.5625,0,0,1.5625,0,0)">
<stop offset="0" style="stop-color:rgb(0%,24.705882%,54.117647%);stop-opacity:1;"/>
<stop offset="0.518" style="stop-color:rgb(0%,84.313725%,87.45098%);stop-opacity:1;"/>
<stop offset="1" style="stop-color:rgb(0%,42.745098%,94.117647%);stop-opacity:1;"/>
</linearGradient>
<linearGradient id="linear8" gradientUnits="userSpaceOnUse" x1="-7.862" y1="44.862" x2="52.507" y2="-15.507" gradientTransform="matrix(1.5625,0,0,1.5625,0,0)">
<stop offset="0" style="stop-color:rgb(0%,24.705882%,54.117647%);stop-opacity:1;"/>
<stop offset="0.518" style="stop-color:rgb(0%,84.313725%,87.45098%);stop-opacity:1;"/>
<stop offset="1" style="stop-color:rgb(0%,42.745098%,94.117647%);stop-opacity:1;"/>
</linearGradient>
<linearGradient id="linear9" gradientUnits="userSpaceOnUse" x1="9.638" y1="62.362" x2="70.007" y2="1.993" gradientTransform="matrix(1.5625,0,0,1.5625,0,0)">
<stop offset="0" style="stop-color:rgb(0%,24.705882%,54.117647%);stop-opacity:1;"/>
<stop offset="0.518" style="stop-color:rgb(0%,84.313725%,87.45098%);stop-opacity:1;"/>
<stop offset="1" style="stop-color:rgb(0%,42.745098%,94.117647%);stop-opacity:1;"/>
</linearGradient>
<linearGradient id="linear10" gradientUnits="userSpaceOnUse" x1="-7.362" y1="45.362" x2="53.007" y2="-15.007" gradientTransform="matrix(1.5625,0,0,1.5625,0,0)">
<stop offset="0" style="stop-color:rgb(0%,24.705882%,54.117647%);stop-opacity:1;"/>
<stop offset="0.518" style="stop-color:rgb(0%,84.313725%,87.45098%);stop-opacity:1;"/>
<stop offset="1" style="stop-color:rgb(0%,42.745098%,94.117647%);stop-opacity:1;"/>
</linearGradient>
<linearGradient id="linear11" gradientUnits="userSpaceOnUse" x1="5.47" y1="58.194" x2="65.84" y2="-2.175" gradientTransform="matrix(1.5625,0,0,1.5625,0,0)">
<stop offset="0" style="stop-color:rgb(0%,24.705882%,54.117647%);stop-opacity:1;"/>
<stop offset="0.518" style="stop-color:rgb(0%,84.313725%,87.45098%);stop-opacity:1;"/>
<stop offset="1" style="stop-color:rgb(0%,42.745098%,94.117647%);stop-opacity:1;"/>
</linearGradient>
<linearGradient id="linear12" gradientUnits="userSpaceOnUse" x1="8.638" y1="61.362" x2="69.007" y2="0.993" gradientTransform="matrix(1.5625,0,0,1.5625,0,0)">
<stop offset="0" style="stop-color:rgb(0%,24.705882%,54.117647%);stop-opacity:1;"/>
<stop offset="0.518" style="stop-color:rgb(0%,84.313725%,87.45098%);stop-opacity:1;"/>
<stop offset="1" style="stop-color:rgb(0%,42.745098%,94.117647%);stop-opacity:1;"/>
</linearGradient>
<linearGradient id="linear13" gradientUnits="userSpaceOnUse" x1="26.388" y1="79.112" x2="86.757" y2="18.743" gradientTransform="matrix(1.5625,0,0,1.5625,0,0)">
<stop offset="0" style="stop-color:rgb(0%,24.705882%,54.117647%);stop-opacity:1;"/>
<stop offset="0.518" style="stop-color:rgb(0%,84.313725%,87.45098%);stop-opacity:1;"/>
<stop offset="1" style="stop-color:rgb(0%,42.745098%,94.117647%);stop-opacity:1;"/>
</linearGradient>
<linearGradient id="linear14" gradientUnits="userSpaceOnUse" x1="-1.862" y1="50.862" x2="58.507" y2="-9.507" gradientTransform="matrix(1.5625,0,0,1.5625,0,0)">
<stop offset="0" style="stop-color:rgb(0%,24.705882%,54.117647%);stop-opacity:1;"/>
<stop offset="0.518" style="stop-color:rgb(0%,84.313725%,87.45098%);stop-opacity:1;"/>
<stop offset="1" style="stop-color:rgb(0%,42.745098%,94.117647%);stop-opacity:1;"/>
</linearGradient>
<linearGradient id="linear15" gradientUnits="userSpaceOnUse" x1="21.138" y1="73.862" x2="81.507" y2="13.493" gradientTransform="matrix(1.5625,0,0,1.5625,0,0)">
<stop offset="0" style="stop-color:rgb(0%,24.705882%,54.117647%);stop-opacity:1;"/>
<stop offset="0.518" style="stop-color:rgb(0%,84.313725%,87.45098%);stop-opacity:1;"/>
<stop offset="1" style="stop-color:rgb(0%,42.745098%,94.117647%);stop-opacity:1;"/>
</linearGradient>
</defs>
<g id="surface1">
<path style=" stroke:none;fill-rule:nonzero;fill:url(#linear0);" d="M 31.25 29.6875 C 28.660156 29.6875 26.5625 27.589844 26.5625 25 C 26.5625 24.136719 25.863281 23.4375 25 23.4375 C 24.136719 23.4375 23.4375 24.136719 23.4375 25 C 23.441406 29.3125 26.9375 32.808594 31.25 32.8125 C 32.113281 32.8125 32.8125 32.113281 32.8125 31.25 C 32.8125 30.386719 32.113281 29.6875 31.25 29.6875 Z M 31.25 29.6875 "/>
<path style=" stroke:none;fill-rule:nonzero;fill:url(#linear1);" d="M 15.625 54.6875 C 14.761719 54.6875 14.0625 55.386719 14.0625 56.25 C 14.0625 57.113281 14.761719 57.8125 15.625 57.8125 C 18.214844 57.8125 20.3125 59.910156 20.3125 62.5 C 20.3125 63.363281 21.011719 64.0625 21.875 64.0625 C 22.738281 64.0625 23.4375 63.363281 23.4375 62.5 C 23.433594 58.1875 19.9375 54.691406 15.625 54.6875 Z M 15.625 54.6875 "/>
<path style=" stroke:none;fill-rule:nonzero;fill:url(#linear2);" d="M 31.25 70.3125 C 27.796875 70.3125 25 73.109375 25 76.5625 C 25 77.425781 25.699219 78.125 26.5625 78.125 C 27.425781 78.125 28.125 77.425781 28.125 76.5625 C 28.125 74.835938 29.523438 73.4375 31.25 73.4375 C 32.113281 73.4375 32.8125 72.738281 32.8125 71.875 C 32.8125 71.011719 32.113281 70.3125 31.25 70.3125 Z M 31.25 70.3125 "/>
<path style=" stroke:none;fill-rule:nonzero;fill:url(#linear3);" d="M 35.9375 42.1875 C 35.9375 43.050781 36.636719 43.75 37.5 43.75 C 39.40625 43.75 40.625 44.675781 40.625 45.3125 C 40.625 46.175781 41.324219 46.875 42.1875 46.875 C 43.050781 46.875 43.75 46.175781 43.75 45.3125 C 43.75 42.683594 41.003906 40.625 37.5 40.625 C 36.636719 40.625 35.9375 41.324219 35.9375 42.1875 Z M 35.9375 42.1875 "/>
<path style=" stroke:none;fill-rule:nonzero;fill:url(#linear4);" d="M 42.1875 57.8125 C 40.460938 57.8125 39.0625 56.414062 39.0625 54.6875 C 39.0625 53.824219 38.363281 53.125 37.5 53.125 C 36.636719 53.125 35.9375 53.824219 35.9375 54.6875 C 35.9375 58.140625 38.734375 60.9375 42.1875 60.9375 C 43.050781 60.9375 43.75 60.238281 43.75 59.375 C 43.75 58.511719 43.050781 57.8125 42.1875 57.8125 Z M 42.1875 57.8125 "/>
<path style=" stroke:none;fill-rule:nonzero;fill:url(#linear5);" d="M 40.625 78.125 C 37.179688 78.125 34.375 81.628906 34.375 85.9375 C 34.375 86.800781 35.074219 87.5 35.9375 87.5 C 36.800781 87.5 37.5 86.800781 37.5 85.9375 C 37.5 83.398438 38.929688 81.25 40.625 81.25 C 41.488281 81.25 42.1875 80.550781 42.1875 79.6875 C 42.1875 78.824219 41.488281 78.125 40.625 78.125 Z M 40.625 78.125 "/>
<path style=" stroke:none;fill-rule:nonzero;fill:url(#linear6);" d="M 35.9375 32.8125 L 37.5 32.8125 C 38.363281 32.8125 39.0625 32.113281 39.0625 31.25 C 39.0625 30.386719 38.363281 29.6875 37.5 29.6875 L 35.9375 29.6875 C 35.074219 29.6875 34.375 30.386719 34.375 31.25 C 34.375 32.113281 35.074219 32.8125 35.9375 32.8125 Z M 35.9375 32.8125 "/>
<path style=" stroke:none;fill-rule:nonzero;fill:url(#linear7);" d="M 31.25 40.625 L 29.6875 40.625 C 28.824219 40.625 28.125 41.324219 28.125 42.1875 C 28.125 43.050781 28.824219 43.75 29.6875 43.75 L 31.25 43.75 C 32.113281 43.75 32.8125 43.050781 32.8125 42.1875 C 32.8125 41.324219 32.113281 40.625 31.25 40.625 Z M 31.25 40.625 "/>
<path style=" stroke:none;fill-rule:nonzero;fill:url(#linear8);" d="M 43.75 15.625 C 43.75 16.488281 44.449219 17.1875 45.3125 17.1875 C 46.175781 17.1875 46.875 16.488281 46.875 15.625 L 46.875 9.375 C 46.875 8.511719 46.175781 7.8125 45.3125 7.8125 C 44.449219 7.8125 43.75 8.511719 43.75 9.375 Z M 43.75 15.625 "/>
<path style=" stroke:none;fill-rule:nonzero;fill:url(#linear9);" d="M 45.3125 62.5 C 44.449219 62.5 43.75 63.199219 43.75 64.0625 L 43.75 70.3125 C 43.75 71.175781 44.449219 71.875 45.3125 71.875 C 46.175781 71.875 46.875 71.175781 46.875 70.3125 L 46.875 64.0625 C 46.875 63.199219 46.175781 62.5 45.3125 62.5 Z M 45.3125 62.5 "/>
<path style=" stroke:none;fill-rule:nonzero;fill:url(#linear10);" d="M 20.3125 45.3125 C 21.175781 45.3125 21.875 44.613281 21.875 43.75 C 21.875 42.886719 21.175781 42.1875 20.3125 42.1875 C 18.585938 42.1875 17.1875 40.789062 17.1875 39.0625 C 17.1875 38.199219 16.488281 37.5 15.625 37.5 C 14.761719 37.5 14.0625 38.199219 14.0625 39.0625 C 14.0625 42.515625 16.859375 45.3125 20.3125 45.3125 Z M 20.3125 45.3125 "/>
<path style=" stroke:none;fill-rule:nonzero;fill:url(#linear11);" d="M 85.9375 32.8125 C 83.078125 32.824219 80.59375 34.769531 79.898438 37.542969 C 79.828125 37.523438 79.757812 37.507812 79.6875 37.5 L 75 37.5 C 74.660156 37.5 74.332031 37.609375 74.0625 37.8125 L 64.0625 45.3125 L 64.0625 33.460938 L 68.605469 28.914062 C 70.53125 31.25 73.855469 31.859375 76.480469 30.359375 C 79.109375 28.863281 80.273438 25.691406 79.242188 22.847656 C 78.214844 20.003906 75.285156 18.3125 72.308594 18.847656 C 69.332031 19.378906 67.167969 21.976562 67.1875 25 C 67.195312 25.277344 67.226562 25.554688 67.273438 25.832031 L 61.394531 31.707031 C 61.101562 32 60.9375 32.398438 60.9375 32.8125 L 60.9375 44.664062 L 57.8125 47.789062 L 57.8125 10.9375 C 57.8125 10.074219 57.113281 9.375 56.25 9.375 C 55.386719 9.375 54.6875 10.074219 54.6875 10.9375 L 54.6875 50.914062 L 54.039062 51.5625 L 51.5625 51.5625 L 51.5625 5.09375 C 51.5625 4.585938 51.316406 4.109375 50.902344 3.816406 C 48.8125 2.339844 46.3125 1.550781 43.75 1.5625 C 38.640625 1.5625 34.046875 4.671875 32.148438 9.414062 C 31.855469 9.390625 31.5625 9.375 31.25 9.375 C 26.074219 9.378906 21.878906 13.574219 21.875 18.75 C 20.019531 18.742188 18.191406 19.15625 16.519531 19.960938 C 10.382812 22.867188 7.695312 30.144531 10.46875 36.34375 C 7.441406 38.269531 5.390625 41.40625 4.839844 44.953125 C 4.285156 48.5 5.285156 52.113281 7.585938 54.867188 C 1.613281 59.515625 -0.171875 67.777344 3.355469 74.472656 C 6.882812 81.167969 14.699219 84.371094 21.910156 82.078125 C 22.34375 86.914062 26.394531 90.621094 31.25 90.625 C 31.5625 90.625 31.855469 90.609375 32.148438 90.585938 C 34.046875 95.328125 38.640625 98.4375 43.75 98.4375 C 46.3125 98.449219 48.8125 97.660156 50.902344 96.183594 C 51.316406 95.890625 51.5625 95.414062 51.5625 94.90625 L 51.5625 54.6875 L 54.6875 54.6875 L 54.6875 87.5 C 54.6875 88.363281 55.386719 89.0625 56.25 89.0625 C 57.113281 89.0625 57.8125 88.363281 57.8125 87.5 L 57.8125 52.210938 L 60.9375 49.085938 L 60.9375 73.4375 C 60.9375 73.851562 61.101562 74.25 61.394531 74.542969 L 67.273438 80.417969 C 67.226562 80.695312 67.195312 80.972656 67.1875 81.25 C 67.148438 84.335938 69.34375 87 72.382812 87.554688 C 75.421875 88.105469 78.414062 86.386719 79.464844 83.484375 C 80.515625 80.582031 79.320312 77.34375 76.632812 75.820312 C 73.945312 74.300781 70.554688 74.9375 68.605469 77.335938 L 64.0625 72.789062 L 64.0625 56.898438 L 69.207031 62.042969 C 69.5 62.335938 69.898438 62.5 70.3125 62.5 L 73.4375 62.5 C 73.507812 62.492188 73.578125 62.476562 73.648438 62.457031 C 74.414062 65.519531 77.34375 67.527344 80.476562 67.140625 C 83.605469 66.753906 85.960938 64.09375 85.960938 60.9375 C 85.960938 57.78125 83.605469 55.121094 80.476562 54.734375 C 77.34375 54.347656 74.414062 56.355469 73.648438 59.417969 C 73.578125 59.398438 73.507812 59.382812 73.4375 59.375 L 70.960938 59.375 L 64.0625 52.476562 L 64.0625 49.21875 L 75.519531 40.625 L 79.6875 40.625 C 79.757812 40.617188 79.828125 40.601562 79.898438 40.582031 C 80.691406 43.730469 83.773438 45.742188 86.976562 45.207031 C 90.179688 44.671875 92.4375 41.769531 92.164062 38.53125 C 91.894531 35.296875 89.1875 32.808594 85.9375 32.8125 Z M 73.4375 21.875 C 75.164062 21.875 76.5625 23.273438 76.5625 25 C 76.5625 26.726562 75.164062 28.125 73.4375 28.125 C 71.710938 28.125 70.3125 26.726562 70.3125 25 C 70.3125 23.273438 71.710938 21.875 73.4375 21.875 Z M 48.4375 94.0625 C 47.015625 94.890625 45.394531 95.320312 43.75 95.3125 C 39.523438 95.3125 35.820312 92.484375 34.710938 88.40625 C 34.601562 88.003906 34.339844 87.664062 33.976562 87.460938 C 33.617188 87.253906 33.1875 87.203125 32.789062 87.3125 C 32.285156 87.441406 31.769531 87.507812 31.25 87.5 C 27.796875 87.5 25 84.703125 25 81.25 C 24.996094 80.84375 25.035156 80.433594 25.121094 80.035156 C 25.246094 79.445312 25.023438 78.835938 24.542969 78.46875 C 24.066406 78.101562 23.417969 78.042969 22.882812 78.316406 C 16.882812 81.335938 9.570312 79.078125 6.320312 73.199219 C 3.074219 67.320312 5.046875 59.925781 10.796875 56.453125 C 11.226562 56.199219 11.511719 55.75 11.554688 55.25 C 11.601562 54.75 11.40625 54.261719 11.027344 53.929688 C 8.636719 51.851562 7.460938 48.703125 7.902344 45.566406 C 8.34375 42.425781 10.34375 39.726562 13.214844 38.386719 C 13.621094 38.199219 13.925781 37.84375 14.054688 37.414062 C 14.179688 36.988281 14.117188 36.523438 13.882812 36.144531 C 12.488281 33.878906 12.125 31.125 12.882812 28.574219 C 13.640625 26.023438 15.453125 23.914062 17.859375 22.78125 C 19.113281 22.179688 20.484375 21.867188 21.875 21.875 C 22.363281 21.871094 22.851562 21.914062 23.328125 22.003906 C 23.847656 22.101562 24.378906 21.933594 24.746094 21.558594 C 25.113281 21.179688 25.265625 20.640625 25.148438 20.128906 C 24.738281 18.273438 25.1875 16.335938 26.371094 14.851562 C 27.558594 13.371094 29.351562 12.503906 31.25 12.5 C 31.769531 12.496094 32.285156 12.5625 32.789062 12.695312 C 33.1875 12.804688 33.617188 12.75 33.976562 12.546875 C 34.339844 12.339844 34.601562 12 34.710938 11.601562 C 35.820312 7.519531 39.523438 4.6875 43.75 4.6875 C 45.394531 4.679688 47.015625 5.109375 48.4375 5.9375 Z M 73.4375 78.125 C 75.164062 78.125 76.5625 79.523438 76.5625 81.25 C 76.5625 82.976562 75.164062 84.375 73.4375 84.375 C 71.710938 84.375 70.3125 82.976562 70.3125 81.25 C 70.3125 79.523438 71.710938 78.125 73.4375 78.125 Z M 79.6875 57.8125 C 81.414062 57.8125 82.8125 59.210938 82.8125 60.9375 C 82.8125 62.664062 81.414062 64.0625 79.6875 64.0625 C 77.960938 64.0625 76.5625 62.664062 76.5625 60.9375 C 76.5625 59.210938 77.960938 57.8125 79.6875 57.8125 Z M 85.9375 42.1875 C 84.210938 42.1875 82.8125 40.789062 82.8125 39.0625 C 82.8125 37.335938 84.210938 35.9375 85.9375 35.9375 C 87.664062 35.9375 89.0625 37.335938 89.0625 39.0625 C 89.0625 40.789062 87.664062 42.1875 85.9375 42.1875 Z M 85.9375 42.1875 "/>
<path style=" stroke:none;fill-rule:nonzero;fill:url(#linear12);" d="M 82.8125 26.5625 L 85.9375 26.5625 C 86.800781 26.5625 87.5 25.863281 87.5 25 C 87.5 24.136719 86.800781 23.4375 85.9375 23.4375 L 82.8125 23.4375 C 81.949219 23.4375 81.25 24.136719 81.25 25 C 81.25 25.863281 81.949219 26.5625 82.8125 26.5625 Z M 82.8125 26.5625 "/>
<path style=" stroke:none;fill-rule:nonzero;fill:url(#linear13);" d="M 84.375 79.6875 L 82.8125 79.6875 C 81.949219 79.6875 81.25 80.386719 81.25 81.25 C 81.25 82.113281 81.949219 82.8125 82.8125 82.8125 L 84.375 82.8125 C 85.238281 82.8125 85.9375 82.113281 85.9375 81.25 C 85.9375 80.386719 85.238281 79.6875 84.375 79.6875 Z M 84.375 79.6875 "/>
<path style=" stroke:none;fill-rule:nonzero;fill:url(#linear14);" d="M 62.5 20.3125 C 63.363281 20.3125 64.0625 19.613281 64.0625 18.75 L 64.0625 9.375 C 64.0625 8.511719 63.363281 7.8125 62.5 7.8125 C 61.636719 7.8125 60.9375 8.511719 60.9375 9.375 L 60.9375 18.75 C 60.9375 19.613281 61.636719 20.3125 62.5 20.3125 Z M 62.5 20.3125 "/>
<path style=" stroke:none;fill-rule:nonzero;fill:url(#linear15);" d="M 62.5 81.25 C 61.636719 81.25 60.9375 81.949219 60.9375 82.8125 L 60.9375 89.0625 C 60.9375 89.925781 61.636719 90.625 62.5 90.625 C 63.363281 90.625 64.0625 89.925781 64.0625 89.0625 L 64.0625 82.8125 C 64.0625 81.949219 63.363281 81.25 62.5 81.25 Z M 62.5 81.25 "/>
</g>
</svg>
